<mxfile host="www.draw.io" modified="2020-06-06T11:20:14.772Z" agent="5.0 (Macintosh; Intel Mac OS X 10_13_1) AppleWebKit/537.36 (KHTML, like Gecko) Chrome/83.0.4103.61 Safari/537.36" etag="LDk5vXZoPLy5W9OPV_wg" version="13.0.7" type="github">
  <diagram id="NosDYZGx0tOOkVOpdiHA" name="第 1 页">
    <mxGraphModel dx="1252" dy="648" grid="0" gridSize="10" guides="1" tooltips="1" connect="1" arrows="1" fold="1" page="1" pageScale="1" pageWidth="3300" pageHeight="4681" math="0" shadow="0">
      <root>
        <mxCell id="0" />
        <mxCell id="1" parent="0" />
        <mxCell id="8jgGspiN5IrL_x7xJObK-3" value="" style="verticalLabelPosition=bottom;verticalAlign=top;html=1;shape=mxgraph.basic.sun;strokeColor=#FF0000;fillColor=#FFFF33;" vertex="1" parent="1">
          <mxGeometry x="106" y="112" width="100" height="100" as="geometry" />
        </mxCell>
        <mxCell id="8jgGspiN5IrL_x7xJObK-8" value="" style="ellipse;shape=doubleEllipse;whiteSpace=wrap;html=1;aspect=fixed;fillColor=#EA6B66;" vertex="1" parent="1">
          <mxGeometry x="180" y="562" width="80" height="80" as="geometry" />
        </mxCell>
        <mxCell id="8jgGspiN5IrL_x7xJObK-9" value="" style="ellipse;shape=doubleEllipse;whiteSpace=wrap;html=1;aspect=fixed;fillColor=#EA6B66;" vertex="1" parent="1">
          <mxGeometry x="330" y="562" width="80" height="80" as="geometry" />
        </mxCell>
        <mxCell id="8jgGspiN5IrL_x7xJObK-10" value="" style="ellipse;whiteSpace=wrap;html=1;aspect=fixed;fillColor=#F19C99;" vertex="1" parent="1">
          <mxGeometry x="550" y="490" width="60" height="60" as="geometry" />
        </mxCell>
        <mxCell id="8jgGspiN5IrL_x7xJObK-11" value="" style="triangle;whiteSpace=wrap;html=1;direction=north;fillColor=#FF99FF;" vertex="1" parent="1">
          <mxGeometry x="540" y="550" width="80" height="60" as="geometry" />
        </mxCell>
        <mxCell id="8jgGspiN5IrL_x7xJObK-42" value="" style="line;strokeWidth=3;html=1;" vertex="1" parent="1">
          <mxGeometry x="260" y="597" width="70" height="10" as="geometry" />
        </mxCell>
        <mxCell id="8jgGspiN5IrL_x7xJObK-45" value="" style="endArrow=none;html=1;strokeWidth=4;" edge="1" parent="1" source="8jgGspiN5IrL_x7xJObK-8">
          <mxGeometry width="50" height="50" relative="1" as="geometry">
            <mxPoint x="290" y="522" as="sourcePoint" />
            <mxPoint x="270" y="522" as="targetPoint" />
          </mxGeometry>
        </mxCell>
        <mxCell id="8jgGspiN5IrL_x7xJObK-46" value="" style="endArrow=none;html=1;strokeWidth=3;" edge="1" parent="1">
          <mxGeometry width="50" height="50" relative="1" as="geometry">
            <mxPoint x="240" y="512" as="sourcePoint" />
            <mxPoint x="300" y="532" as="targetPoint" />
          </mxGeometry>
        </mxCell>
        <mxCell id="8jgGspiN5IrL_x7xJObK-47" value="" style="line;strokeWidth=3;direction=south;html=1;" vertex="1" parent="1">
          <mxGeometry x="320" y="551" width="10" height="50" as="geometry" />
        </mxCell>
        <mxCell id="8jgGspiN5IrL_x7xJObK-50" value="" style="ellipse;whiteSpace=wrap;html=1;fillColor=#f8cecc;strokeColor=#b85450;" vertex="1" parent="1">
          <mxGeometry x="310" y="541" width="30" height="10" as="geometry" />
        </mxCell>
        <mxCell id="8jgGspiN5IrL_x7xJObK-52" value="" style="ellipse;whiteSpace=wrap;html=1;aspect=fixed;strokeColor=#FF0000;strokeWidth=3;fillColor=#FF0000;" vertex="1" parent="1">
          <mxGeometry x="126" y="132" width="60" height="60" as="geometry" />
        </mxCell>
        <mxCell id="8jgGspiN5IrL_x7xJObK-55" value="" style="ellipse;whiteSpace=wrap;html=1;aspect=fixed;strokeColor=#000000;strokeWidth=3;fillColor=#000000;" vertex="1" parent="1">
          <mxGeometry x="563.5" y="457" width="33" height="33" as="geometry" />
        </mxCell>
        <mxCell id="8jgGspiN5IrL_x7xJObK-61" value="" style="shape=xor;whiteSpace=wrap;html=1;strokeColor=#000000;strokeWidth=3;fillColor=#000000;direction=north;" vertex="1" parent="1">
          <mxGeometry x="550" y="484" width="60.5" height="25" as="geometry" />
        </mxCell>
        <mxCell id="8jgGspiN5IrL_x7xJObK-66" value="" style="ellipse;shape=cloud;whiteSpace=wrap;html=1;strokeColor=#CCFFFF;strokeWidth=3;fillColor=#CCFFFF;" vertex="1" parent="1">
          <mxGeometry x="648" y="146" width="120" height="80" as="geometry" />
        </mxCell>
        <mxCell id="8jgGspiN5IrL_x7xJObK-67" value="" style="ellipse;shape=cloud;whiteSpace=wrap;html=1;strokeColor=#99FFFF;strokeWidth=3;fillColor=#99FFFF;" vertex="1" parent="1">
          <mxGeometry x="307" y="130" width="120" height="80" as="geometry" />
        </mxCell>
        <mxCell id="8jgGspiN5IrL_x7xJObK-68" value="" style="ellipse;shape=cloud;whiteSpace=wrap;html=1;strokeColor=#CCFFFF;strokeWidth=3;fillColor=#CCFFFF;" vertex="1" parent="1">
          <mxGeometry x="466" y="94" width="120" height="80" as="geometry" />
        </mxCell>
        <mxCell id="8jgGspiN5IrL_x7xJObK-69" value="" style="ellipse;shape=cloud;whiteSpace=wrap;html=1;strokeColor=#CCFFFF;strokeWidth=3;fillColor=#CCFFFF;" vertex="1" parent="1">
          <mxGeometry x="865" y="137" width="120" height="80" as="geometry" />
        </mxCell>
        <mxCell id="8jgGspiN5IrL_x7xJObK-70" value="" style="ellipse;shape=cloud;whiteSpace=wrap;html=1;strokeColor=#CCFFFF;strokeWidth=3;fillColor=#99FFFF;" vertex="1" parent="1">
          <mxGeometry x="68" y="150" width="120" height="80" as="geometry" />
        </mxCell>
        <mxCell id="8jgGspiN5IrL_x7xJObK-71" value="" style="ellipse;shape=cloud;whiteSpace=wrap;html=1;strokeColor=#CCFFFF;strokeWidth=3;fillColor=#99FFFF;" vertex="1" parent="1">
          <mxGeometry x="140" y="161" width="120" height="80" as="geometry" />
        </mxCell>
        <mxCell id="8jgGspiN5IrL_x7xJObK-72" value="" style="ellipse;shape=cloud;whiteSpace=wrap;html=1;strokeColor=#CCFFFF;strokeWidth=3;fillColor=#99FFFF;" vertex="1" parent="1">
          <mxGeometry x="307" y="21" width="120" height="80" as="geometry" />
        </mxCell>
        <mxCell id="8jgGspiN5IrL_x7xJObK-77" value="" style="ellipse;shape=cloud;whiteSpace=wrap;html=1;strokeColor=#CCFFFF;strokeWidth=3;fillColor=#99FFFF;" vertex="1" parent="1">
          <mxGeometry x="436" y="137" width="120" height="80" as="geometry" />
        </mxCell>
        <mxCell id="8jgGspiN5IrL_x7xJObK-73" value="" style="ellipse;shape=cloud;whiteSpace=wrap;html=1;strokeColor=#CCFFFF;strokeWidth=3;fillColor=#99FFFF;" vertex="1" parent="1">
          <mxGeometry x="875" y="11" width="120" height="80" as="geometry" />
        </mxCell>
        <mxCell id="8jgGspiN5IrL_x7xJObK-74" value="" style="ellipse;shape=cloud;whiteSpace=wrap;html=1;strokeColor=#CCFFFF;strokeWidth=3;fillColor=#99FFFF;" vertex="1" parent="1">
          <mxGeometry x="225" y="24" width="120" height="80" as="geometry" />
        </mxCell>
        <mxCell id="8jgGspiN5IrL_x7xJObK-75" value="" style="ellipse;shape=cloud;whiteSpace=wrap;html=1;strokeColor=#CCFFFF;strokeWidth=3;fillColor=#99FFFF;" vertex="1" parent="1">
          <mxGeometry x="561" y="38" width="120" height="80" as="geometry" />
        </mxCell>
        <mxCell id="8jgGspiN5IrL_x7xJObK-76" value="" style="ellipse;shape=cloud;whiteSpace=wrap;html=1;strokeColor=#CCFFFF;strokeWidth=3;fillColor=#99FFFF;" vertex="1" parent="1">
          <mxGeometry x="721" y="39" width="120" height="79" as="geometry" />
        </mxCell>
        <mxCell id="8jgGspiN5IrL_x7xJObK-80" value="" style="ellipse;shape=cloud;whiteSpace=wrap;html=1;strokeColor=#CCFFFF;strokeWidth=3;fillColor=#99FFFF;" vertex="1" parent="1">
          <mxGeometry x="6" y="41" width="120" height="80" as="geometry" />
        </mxCell>
        <mxCell id="8jgGspiN5IrL_x7xJObK-82" value="" style="ellipse;whiteSpace=wrap;html=1;aspect=fixed;strokeColor=#000000;strokeWidth=3;fillColor=#000000;direction=north;" vertex="1" parent="1">
          <mxGeometry x="594" y="515.5" width="9" height="9" as="geometry" />
        </mxCell>
        <mxCell id="8jgGspiN5IrL_x7xJObK-83" value="" style="ellipse;whiteSpace=wrap;html=1;aspect=fixed;strokeColor=#000000;strokeWidth=3;fillColor=#000000;" vertex="1" parent="1">
          <mxGeometry x="561" y="515.5" width="10" height="10" as="geometry" />
        </mxCell>
        <mxCell id="8jgGspiN5IrL_x7xJObK-84" value="" style="shape=xor;whiteSpace=wrap;html=1;strokeColor=#FF0000;strokeWidth=3;fillColor=#000000;direction=south;" vertex="1" parent="1">
          <mxGeometry x="576" y="539" width="8" height="2" as="geometry" />
        </mxCell>
        <mxCell id="8jgGspiN5IrL_x7xJObK-85" value="" style="line;strokeWidth=4;direction=south;html=1;perimeter=backbonePerimeter;points=[];outlineConnect=0;fillColor=#000000;" vertex="1" parent="1">
          <mxGeometry x="838" y="316" width="10" height="357" as="geometry" />
        </mxCell>
        <mxCell id="8jgGspiN5IrL_x7xJObK-87" value="" style="line;strokeWidth=2;html=1;fillColor=#000000;" vertex="1" parent="1">
          <mxGeometry x="835" y="316" width="192" height="10" as="geometry" />
        </mxCell>
        <mxCell id="8jgGspiN5IrL_x7xJObK-88" value="" style="triangle;whiteSpace=wrap;html=1;strokeColor=#FF3399;strokeWidth=3;fillColor=#FF3399;direction=north;" vertex="1" parent="1">
          <mxGeometry x="848" y="210" width="184" height="109" as="geometry" />
        </mxCell>
        <mxCell id="8jgGspiN5IrL_x7xJObK-90" value="" style="line;strokeWidth=2;html=1;fillColor=#FF3399;" vertex="1" parent="1">
          <mxGeometry x="681" y="539" width="160" height="10" as="geometry" />
        </mxCell>
        <mxCell id="8jgGspiN5IrL_x7xJObK-91" value="" style="line;strokeWidth=4;direction=south;html=1;perimeter=backbonePerimeter;points=[];outlineConnect=0;fillColor=#FF3399;" vertex="1" parent="1">
          <mxGeometry x="678" y="543" width="10" height="160" as="geometry" />
        </mxCell>
        <mxCell id="8jgGspiN5IrL_x7xJObK-92" value="" style="line;strokeWidth=4;direction=south;html=1;perimeter=backbonePerimeter;points=[];outlineConnect=0;fillColor=#FF3399;rotation=60;" vertex="1" parent="1">
          <mxGeometry x="553.5" y="557" width="10" height="38" as="geometry" />
        </mxCell>
        <mxCell id="8jgGspiN5IrL_x7xJObK-93" value="" style="line;strokeWidth=4;direction=south;html=1;perimeter=backbonePerimeter;points=[];outlineConnect=0;fillColor=#FF3399;rotation=105;" vertex="1" parent="1">
          <mxGeometry x="599.94" y="549.5" width="10" height="41" as="geometry" />
        </mxCell>
        <mxCell id="8jgGspiN5IrL_x7xJObK-94" value="" style="line;strokeWidth=4;direction=south;html=1;perimeter=backbonePerimeter;points=[];outlineConnect=0;fillColor=#FF3399;" vertex="1" parent="1">
          <mxGeometry x="586" y="610" width="10" height="31" as="geometry" />
        </mxCell>
        <mxCell id="8jgGspiN5IrL_x7xJObK-96" value="" style="line;strokeWidth=4;direction=south;html=1;perimeter=backbonePerimeter;points=[];outlineConnect=0;fillColor=#FF3399;" vertex="1" parent="1">
          <mxGeometry x="569" y="610" width="10" height="32" as="geometry" />
        </mxCell>
        <mxCell id="8jgGspiN5IrL_x7xJObK-105" value="" style="shape=ext;double=1;rounded=0;whiteSpace=wrap;html=1;strokeColor=#FF3399;strokeWidth=3;fillColor=#FF3399;" vertex="1" parent="1">
          <mxGeometry x="11" y="644" width="1003" height="8" as="geometry" />
        </mxCell>
      </root>
    </mxGraphModel>
  </diagram>
</mxfile>
